<svg width="261" height="57" viewBox="0 0 261 57" fill="none" xmlns="http://www.w3.org/2000/svg">
<path d="M0.675313 56V14H8.99531V28L7.55531 25.92C8.24865 23.5733 9.42198 21.44 11.0753 19.52C12.7286 17.5467 14.622 16 16.7553 14.88C18.8886 13.7067 21.102 13.12 23.3953 13.12C24.7286 13.12 26.0086 13.2533 27.2353 13.52C28.5153 13.7867 29.502 14.1333 30.1953 14.56L28.0353 23.36C27.182 22.88 26.1686 22.5067 24.9953 22.24C23.8753 21.9733 22.782 21.84 21.7153 21.84C19.902 21.84 18.222 22.1867 16.6753 22.88C15.1286 23.52 13.7686 24.4 12.5953 25.52C11.4753 26.64 10.5953 27.92 9.95531 29.36C9.31531 30.7467 8.99531 32.2133 8.99531 33.76V56H0.675313ZM63.1753 56.8C58.3753 56.8 54.1086 55.8933 50.3753 54.08C46.642 52.2133 43.7086 49.68 41.5753 46.48C39.4953 43.28 38.4553 39.6 38.4553 35.44C38.4553 32.0267 39.0686 28.96 40.2953 26.24C41.522 23.52 43.202 21.1733 45.3353 19.2C47.522 17.2267 50.082 15.7067 53.0153 14.64C55.9486 13.5733 59.0953 13.04 62.4553 13.04C65.4953 13.04 68.322 13.5467 70.9353 14.56C73.602 15.5733 75.922 16.9867 77.8953 18.8C79.8686 20.6133 81.3886 22.7733 82.4553 25.28C83.5753 27.7333 84.1086 30.4533 84.0553 33.44L83.9753 37.28H45.1753L43.3353 30.72H76.8553L75.6553 31.76V29.84C75.442 28.08 74.6953 26.5067 73.4153 25.12C72.1353 23.7333 70.5353 22.64 68.6153 21.84C66.6953 21.04 64.642 20.64 62.4553 20.64C59.2553 20.64 56.4553 21.1467 54.0553 22.16C51.7086 23.1733 49.8686 24.7467 48.5353 26.88C47.2553 28.96 46.6153 31.6267 46.6153 34.88C46.6153 37.8133 47.362 40.3467 48.8553 42.48C50.3486 44.6133 52.4286 46.2667 55.0953 47.44C57.762 48.6133 60.8286 49.2 64.2953 49.2C67.282 49.2 69.8686 48.7733 72.0553 47.92C74.242 47.0667 76.322 45.8933 78.2953 44.4L82.2153 50.4C80.8286 51.5733 79.0953 52.6667 77.0153 53.68C74.9353 54.64 72.6953 55.4133 70.2953 56C67.9486 56.5333 65.5753 56.8 63.1753 56.8ZM113.805 56L93.5647 14H102.765L118.125 47.12L116.285 47.84L132.525 14H141.325L120.365 56H113.805ZM156.154 56.88C153.967 56.88 152.314 56.3467 151.194 55.28C150.074 54.2133 149.514 52.7467 149.514 50.88C149.514 49.2267 150.074 47.8133 151.194 46.64C152.367 45.4667 154.021 44.88 156.154 44.88C158.341 44.88 159.994 45.4133 161.114 46.48C162.234 47.5467 162.794 49.0133 162.794 50.88C162.794 52.5333 162.207 53.9467 161.034 55.12C159.914 56.2933 158.287 56.88 156.154 56.88ZM203.574 56L227.494 -3.8147e-06H236.854L260.614 56H251.254L236.054 20.32C235.787 19.68 235.414 18.7467 234.934 17.52C234.507 16.24 234.027 14.88 233.494 13.44C232.961 12 232.454 10.64 231.974 9.36C231.494 8.02666 231.121 6.98666 230.854 6.24L233.014 6.16C232.641 7.22666 232.214 8.4 231.734 9.68C231.307 10.96 230.827 12.2667 230.294 13.6C229.814 14.9333 229.334 16.2133 228.854 17.44C228.374 18.6133 227.947 19.68 227.574 20.64L212.454 56H203.574ZM214.054 42.4L217.414 34.08H245.894L248.694 42.4H214.054Z" fill="black"/>
</svg>
