<svg width="208" height="61" viewBox="0 0 208 61" fill="none" xmlns="http://www.w3.org/2000/svg">
<path d="M7.99531 60V15.2C7.99531 12.4267 8.60865 9.97333 9.83531 7.84C11.062 5.65333 12.742 3.94667 14.8753 2.72C17.062 1.49333 19.5686 0.879998 22.3953 0.879998C24.582 0.879998 26.502 1.22667 28.1553 1.92C29.862 2.61333 31.1686 3.44 32.0753 4.4L29.2753 11.04C28.4753 10.4 27.542 9.84 26.4753 9.36C25.4086 8.82667 24.3686 8.56 23.3553 8.56C21.5953 8.56 20.1553 8.85333 19.0353 9.44C17.9686 9.97333 17.1953 10.7467 16.7153 11.76C16.2353 12.7733 15.9953 13.92 15.9953 15.2V60H11.9953C11.4086 60 10.7686 60 10.0753 60C9.43531 60 8.74198 60 7.99531 60ZM-0.00468743 26.64V19.04H29.4353V26.64H-0.00468743ZM62.3409 60.24C58.4476 60.24 54.9543 59.4933 51.8609 58C48.7676 56.5067 46.3143 54.5067 44.5009 52C42.7409 49.44 41.8609 46.64 41.8609 43.6C41.8609 41.7867 42.1276 40.16 42.6609 38.72C43.1943 37.2267 43.9409 35.92 44.9009 34.8C45.8609 33.6267 46.9809 32.5867 48.2609 31.68C49.5943 30.72 51.0609 29.8933 52.6609 29.2L52.1809 31.52C50.9543 30.9867 49.8076 30.3467 48.7409 29.6C47.7276 28.8533 46.8209 27.9733 46.0209 26.96C45.2743 25.8933 44.6876 24.7467 44.2609 23.52C43.8343 22.24 43.6209 20.88 43.6209 19.44C43.6209 16.6133 44.4476 14.0267 46.1009 11.68C47.8076 9.33333 50.0743 7.46667 52.9009 6.08C55.7276 4.69333 58.8743 4 62.3409 4C65.8076 4 68.9543 4.69333 71.7809 6.08C74.6076 7.46667 76.8476 9.33333 78.5009 11.68C80.1543 14.0267 80.9809 16.6133 80.9809 19.44C80.9809 20.9333 80.7676 22.32 80.3409 23.6C79.9143 24.88 79.3009 26.0267 78.5009 27.04C77.7543 28 76.8476 28.8533 75.7809 29.6C74.7143 30.3467 73.5943 30.9867 72.4209 31.52L72.1809 29.52C73.7809 30.16 75.2209 30.96 76.5009 31.92C77.8343 32.88 78.9809 33.9733 79.9409 35.2C80.9009 36.4267 81.6209 37.76 82.1009 39.2C82.6343 40.5867 82.9009 42.0533 82.9009 43.6C82.9009 46.6933 81.9943 49.4933 80.1809 52C78.3676 54.5067 75.9143 56.5067 72.8209 58C69.7276 59.4933 66.2343 60.24 62.3409 60.24ZM62.3409 52.24C64.6343 52.24 66.6876 51.8667 68.5009 51.12C70.3143 50.32 71.7543 49.28 72.8209 48C73.8876 46.6667 74.4209 45.1467 74.4209 43.44C74.4209 41.68 73.8876 40.1333 72.8209 38.8C71.7543 37.4667 70.2876 36.4267 68.4209 35.68C66.6076 34.9333 64.5809 34.56 62.3409 34.56C60.1009 34.56 58.0476 34.9333 56.1809 35.68C54.3676 36.4267 52.9276 37.4667 51.8609 38.8C50.7943 40.1333 50.2609 41.68 50.2609 43.44C50.2609 45.0933 50.7943 46.5867 51.8609 47.92C52.9276 49.2533 54.3676 50.32 56.1809 51.12C57.9943 51.8667 60.0476 52.24 62.3409 52.24ZM62.3409 27.04C64.2609 27.04 65.9676 26.72 67.4609 26.08C69.0076 25.3867 70.2343 24.48 71.1409 23.36C72.0476 22.1867 72.5009 20.8533 72.5009 19.36C72.5009 17.9733 72.0476 16.7467 71.1409 15.68C70.2876 14.56 69.0876 13.68 67.5409 13.04C65.9943 12.3467 64.2609 12 62.3409 12C60.3676 12 58.6076 12.3467 57.0609 13.04C55.5143 13.68 54.2876 14.56 53.3809 15.68C52.5276 16.7467 52.1009 17.9733 52.1009 19.36C52.1009 20.8533 52.5543 22.1867 53.4609 23.36C54.3676 24.48 55.5943 25.3867 57.1409 26.08C58.6876 26.72 60.4209 27.04 62.3409 27.04ZM133.073 60V15.2C133.073 12.4267 133.687 9.97333 134.913 7.84C136.14 5.65333 137.82 3.94667 139.953 2.72C142.14 1.49333 144.647 0.879998 147.473 0.879998C149.66 0.879998 151.58 1.22667 153.233 1.92C154.94 2.61333 156.247 3.44 157.153 4.4L154.353 11.04C153.553 10.4 152.62 9.84 151.553 9.36C150.487 8.82667 149.447 8.56 148.433 8.56C146.673 8.56 145.233 8.85333 144.113 9.44C143.047 9.97333 142.273 10.7467 141.793 11.76C141.313 12.7733 141.073 13.92 141.073 15.2V60H137.073C136.487 60 135.847 60 135.153 60C134.513 60 133.82 60 133.073 60ZM125.073 26.64V19.04H154.513V26.64H125.073ZM187.697 60.8C183.377 60.8 179.51 59.84 176.097 57.92C172.737 56 170.043 53.3867 168.017 50.08C166.043 46.7733 165.057 43.0667 165.057 38.96C165.057 34.8533 166.043 31.1467 168.017 27.84C170.043 24.5333 172.737 21.92 176.097 20C179.51 18.08 183.377 17.12 187.697 17.12C191.91 17.12 195.777 17.8667 199.297 19.36C202.817 20.8533 205.537 22.88 207.457 25.44L202.897 31.52C201.777 30.24 200.39 29.0667 198.737 28C197.137 26.9333 195.403 26.1067 193.537 25.52C191.723 24.88 189.937 24.56 188.177 24.56C185.297 24.56 182.71 25.2 180.417 26.48C178.177 27.7067 176.417 29.4133 175.137 31.6C173.857 33.7867 173.217 36.24 173.217 38.96C173.217 41.68 173.883 44.1333 175.217 46.32C176.603 48.4533 178.417 50.16 180.657 51.44C182.95 52.72 185.483 53.36 188.257 53.36C190.283 53.36 192.15 53.0933 193.857 52.56C195.617 52.0267 197.243 51.3067 198.737 50.4C200.283 49.44 201.67 48.3733 202.897 47.2L207.457 53.12C205.217 55.2533 202.363 57.0667 198.897 58.56C195.483 60.0533 191.75 60.8 187.697 60.8Z" fill="black"/>
</svg>
